<?xml version="1.0" encoding="UTF-8" standalone="no"?>
<!DOCTYPE svg PUBLIC "-//W3C//DTD SVG 1.1//EN" "http://www.w3.org/Graphics/SVG/1.1/DTD/svg11.dtd">
<svg width="100%" height="100%" viewBox="0 0 1531 311" version="1.1" xmlns="http://www.w3.org/2000/svg" xmlns:xlink="http://www.w3.org/1999/xlink" xml:space="preserve" xmlns:serif="http://www.serif.com/" style="fill-rule:evenodd;clip-rule:evenodd;stroke-linejoin:round;stroke-miterlimit:2;">
    <g transform="matrix(5.55556,0,0,5.55556,-351.956,-694.711)">
        <path d="M169.807,125.279L170.113,125.282C171.307,125.334 172.46,125.572 173.567,125.993C174.859,126.485 176.037,127.202 177.09,128.142C178.141,129.081 179.002,130.183 179.674,131.451C180.342,132.713 180.747,134.111 180.886,135.632L180.898,135.772L180.901,135.913L180.901,197.596L180.896,197.771C180.801,199.423 180.367,200.915 179.609,202.235C178.853,203.552 177.884,204.654 176.713,205.531C175.542,206.409 174.222,207.049 172.759,207.439C171.348,207.815 169.853,208.002 168.28,208.002L131.897,208.002C130.371,208.002 128.927,207.816 127.571,207.436C126.173,207.044 124.912,206.402 123.794,205.509C122.671,204.612 121.764,203.493 121.084,202.164C120.407,200.841 120.039,199.343 120.039,197.674L120.039,151.78L120.043,151.619C120.135,150.484 120.33,149.316 120.634,148.117C120.938,146.921 121.332,145.73 121.815,144.545C122.302,143.35 122.856,142.2 123.477,141.096C124.1,139.988 124.756,138.969 125.446,138.041C126.143,137.105 126.864,136.29 127.609,135.599C128.348,134.913 129.075,134.351 129.787,133.914L158.774,127.786C159.956,127.063 161.219,126.492 162.563,126.073C163.965,125.637 165.377,125.381 166.8,125.312L169.807,125.279ZM100.921,143.797C102.327,143.797 103.663,144.045 104.93,144.544C106.194,145.042 107.333,145.773 108.342,146.737C109.346,147.697 110.159,148.832 110.779,150.14C111.398,151.446 111.724,152.883 111.724,154.44L111.724,197.596L111.72,197.76C111.631,199.283 111.263,200.682 110.625,201.952C109.986,203.225 109.132,204.319 108.065,205.231C107.003,206.138 105.778,206.835 104.39,207.314C103.037,207.781 101.595,208.002 100.067,208.002L73.024,208.002C71.481,208.002 70.034,207.773 68.686,207.31C67.295,206.832 66.079,206.13 65.039,205.202C63.999,204.274 63.185,203.174 62.603,201.901C62.02,200.625 61.741,199.224 61.741,197.705L61.741,166.283L61.746,166.121C61.828,165.108 61.995,164.091 62.248,163.072C62.503,162.046 62.828,161.034 63.222,160.036C63.617,159.036 64.059,158.078 64.548,157.162C65.042,156.237 65.558,155.379 66.096,154.59C66.638,153.795 67.188,153.101 67.746,152.508C68.303,151.916 68.841,151.426 69.36,151.038L88.22,146.262C89.075,145.622 89.991,145.088 90.969,144.663C92.018,144.206 93.096,143.931 94.2,143.838L100.921,143.797ZM213.331,112.256L213.649,112.259C215.044,112.314 216.398,112.586 217.707,113.073C219.222,113.637 220.608,114.456 221.857,115.53C223.102,116.6 224.123,117.868 224.919,119.335C225.713,120.8 226.194,122.421 226.356,124.191L226.368,124.331L226.371,124.472L226.371,197.596L226.366,197.771C226.271,199.423 225.837,200.915 225.079,202.235C224.323,203.552 223.354,204.654 222.183,205.531C221.012,206.409 219.692,207.049 218.229,207.439C216.818,207.815 215.323,208.002 213.75,208.002L185.017,208.002C183.491,208.002 182.047,207.816 180.691,207.436C179.293,207.044 178.032,206.402 176.914,205.509C175.791,204.612 174.884,203.493 174.204,202.164C173.527,200.841 173.159,199.343 173.159,197.674L173.159,140.708L173.164,140.546C173.26,139.361 173.469,138.143 173.795,136.892C174.12,135.643 174.535,134.403 175.039,133.171C175.544,131.935 176.112,130.755 176.742,129.632C177.375,128.504 178.037,127.472 178.729,126.537C179.426,125.595 180.146,124.777 180.889,124.082C181.628,123.391 182.352,122.825 183.059,122.383L202.613,116.262C203.898,115.393 205.271,114.7 206.733,114.187C208.242,113.657 209.761,113.344 211.29,113.259L213.331,112.256Z" style="fill:rgb(0,0,0);fill-rule:nonzero;"/>
        <path d="M98.351,150.147C99.375,150.147 100.341,150.329 101.249,150.692C102.157,151.055 102.97,151.581 103.689,152.27C104.408,152.959 104.985,153.765 105.42,154.69C105.855,155.615 106.073,156.639 106.073,157.764L106.073,197.379C106.011,198.472 105.763,199.434 105.329,200.263C104.895,201.092 104.327,201.788 103.627,202.35C102.927,202.912 102.122,203.34 101.214,203.633C100.306,203.927 99.344,204.074 98.328,204.074L74.308,204.074C73.277,204.074 72.316,203.927 71.424,203.633C70.531,203.34 69.75,202.912 69.081,202.35C68.411,201.788 67.89,201.092 67.517,200.263C67.144,199.434 66.958,198.472 66.958,197.379L66.958,169.129C67.021,168.238 67.161,167.346 67.378,166.455C67.595,165.564 67.874,164.692 68.215,163.84C68.557,162.988 68.938,162.177 69.36,161.406C69.781,160.635 70.217,159.924 70.667,159.273C71.118,158.622 71.576,158.055 72.041,157.571C72.507,157.088 72.955,156.699 73.385,156.405L92.431,144.537C93.11,144.099 93.834,143.738 94.603,143.455C95.372,143.171 96.145,142.988 96.924,142.907L98.351,150.147Z" style="fill:rgb(184,241,207);fill-rule:nonzero;"/>
        <path d="M163.799,131.622C164.909,131.622 165.966,131.823 166.968,132.224C167.97,132.625 168.872,133.211 169.674,133.98C170.476,134.749 171.123,135.655 171.613,136.697C172.103,137.739 172.349,138.893 172.349,140.159L172.349,197.379C172.283,198.472 172.025,199.434 171.577,200.263C171.129,201.092 170.543,201.788 169.82,202.35C169.097,202.912 168.269,203.34 167.337,203.633C166.405,203.927 165.419,204.074 164.38,204.074L132.844,204.074C131.813,204.074 130.851,203.927 129.959,203.633C129.067,203.34 128.286,202.912 127.617,202.35C126.947,201.788 126.426,201.092 126.053,200.263C125.68,199.434 125.494,198.472 125.494,197.379L125.494,154.241C125.557,153.192 125.716,152.119 125.971,151.025C126.226,149.931 126.552,148.847 126.947,147.772C127.343,146.697 127.79,145.673 128.287,144.699C128.785,143.725 129.309,142.835 129.859,142.028C130.409,141.22 130.973,140.522 131.55,139.933C132.127,139.344 132.695,138.886 133.253,138.558L157.91,123.702C158.884,123.112 159.93,122.657 161.048,122.336C162.166,122.015 163.293,121.855 164.431,121.855L163.799,131.622Z" style="fill:rgb(68,202,134);fill-rule:nonzero;"/>
        <path d="M216.884,118.347C218.047,118.347 219.157,118.564 220.215,118.998C221.273,119.432 222.222,120.066 223.062,120.899C223.902,121.733 224.58,122.716 225.095,123.849C225.61,124.982 225.868,126.239 225.868,127.62L225.868,197.379C225.806,198.472 225.558,199.434 225.124,200.263C224.69,201.092 224.122,201.788 223.422,202.35C222.722,202.912 221.917,203.34 221.009,203.633C220.101,203.927 219.139,204.074 218.123,204.074L188.308,204.074C187.277,204.074 186.316,203.927 185.424,203.633C184.531,203.34 183.75,202.912 183.081,202.35C182.411,201.788 181.89,201.092 181.517,200.263C181.144,199.434 180.958,198.472 180.958,197.379L180.958,137.507C181.021,136.386 181.194,135.24 181.478,134.069C181.762,132.899 182.129,131.746 182.581,130.61C183.033,129.473 183.545,128.391 184.116,127.365C184.687,126.339 185.287,125.405 185.916,124.563C186.545,123.721 187.186,122.993 187.841,122.379C188.496,121.765 189.136,121.286 189.761,120.942L209.647,108.504C210.808,107.834 212.045,107.318 213.359,106.957C214.672,106.595 216.005,106.414 217.358,106.414L216.884,118.347Z" style="fill:rgb(42,181,119);fill-rule:nonzero;"/>
    </g>
</svg>
